<!DOCTYPE svg PUBLIC "-//W3C//DTD SVG 1.1//EN" "http://www.w3.org/Graphics/SVG/1.1/DTD/svg11.dtd">
<!-- Uploaded to: SVG Repo, www.svgrepo.com, Transformed by: SVG Repo Mixer Tools -->
<svg width="800px" height="800px" viewBox="0 0 32 32" xmlns="http://www.w3.org/2000/svg" fill="none">
<g id="SVGRepo_bgCarrier" stroke-width="0"/>
<g id="SVGRepo_tracerCarrier" stroke-linecap="round" stroke-linejoin="round"/>
<g id="SVGRepo_iconCarrier"> <path stroke="#000000" stroke-linecap="round" stroke-linejoin="round" stroke-width="2" d="M15.414 5.586l-11 11a2 2 0 000 2.828l8.172 8.172a2 2 0 002.828 0l11-11A2 2 0 0027 15.172V7a2 2 0 00-2-2h-8.172a2 2 0 00-1.414.586zM10 19l5.5-5.5M13 22l2.5-2.5"/> <path fill="#000000" d="M23 10a1 1 0 11-2 0 1 1 0 012 0z"/> </g>
</svg>