<svg width="100" height="100" viewBox="0 0 100 100" fill="none" xmlns="http://www.w3.org/2000/svg">
<rect width="100" height="100" rx="4" fill="#F0F1FF"/>
<g clip-path="url(#clip0_1904_14138)">
<path d="M73.2046 50.8504L63.4712 45.2332C62.8468 44.8733 62.0925 43.9148 61.8893 43.2233L58.8744 32.9654C58.7995 32.7088 58.6858 32.4797 58.5463 32.2782C58.108 31.4722 57.2632 30.9245 56.2841 30.9245L43.4143 31.4799C42.8503 31.504 42.3259 31.7176 41.8961 32.0715C41.81 32.1241 41.7205 32.1749 41.643 32.2343L32.8981 38.9788C31.888 39.7581 31.3222 41.3426 31.6115 42.5852L35.0742 57.4829C35.3627 58.7264 36.5528 59.6651 37.8402 59.6651C37.9271 59.6651 38.015 59.6608 38.102 59.6522L39.3945 59.523C40.0869 59.4532 40.7121 59.1019 41.1082 58.5577C41.5052 58.0134 41.649 57.3107 41.5035 56.6304L39.0415 45.1299C38.9123 44.5262 39.2395 43.6332 39.7286 43.2569L41.2865 42.0573L42.0873 60.5236C42.0882 60.5434 42.0942 60.5615 42.0959 60.5813L38.5411 68.4659C38.0933 69.4588 36.9687 70.8341 36.0852 71.4705L27.751 77.4709C26.4085 78.4371 25.9013 80.3695 26.5954 81.8713L27.7355 84.3351C28.1902 85.3176 29.1022 85.9282 30.1166 85.9282C30.697 85.9282 31.2679 85.731 31.7674 85.3598L42.7711 77.166C43.8673 76.3497 45.2193 74.7609 45.8488 73.5475L51.342 62.9676C51.3859 62.8823 51.4135 62.791 51.4496 62.7023L51.8328 62.686L60.824 87.4748C61.4587 89.2246 63.1517 90.4009 65.0367 90.4009C65.4845 90.4009 65.9271 90.3329 66.3525 90.1977L66.9071 90.0212C68.0059 89.6724 68.8886 88.9172 69.3932 87.8941C69.897 86.8711 69.9581 85.7103 69.5655 84.627L60.0972 58.5249C60.0533 58.4044 59.993 58.2941 59.9405 58.1796L59.6365 51.1751L70.0753 56.5977C70.4421 56.7889 70.8555 56.8896 71.2714 56.8896C72.2376 56.8896 73.122 56.3669 73.5792 55.5256L74.2001 54.382C74.8753 53.1411 74.4283 51.5566 73.2046 50.8504Z" fill="black"/>
<path d="M48.43 29.0619C48.5652 29.0619 48.7021 29.0593 48.839 29.0533C51.3286 28.9457 53.6278 27.8735 55.3122 26.0367C56.9966 24.1999 57.8647 21.8163 57.757 19.3267C57.5348 14.1848 53.2377 10.184 48.0304 10.407C45.5409 10.5147 43.2416 11.5868 41.5572 13.4236C39.8728 15.2613 39.0048 17.6441 39.1124 20.1336C39.3295 25.1403 43.4225 29.0619 48.43 29.0619Z" fill="black"/>
</g>
<defs>
<clipPath id="clip0_1904_14138">
<rect width="80" height="80" fill="white" transform="translate(10.4004 10.4)"/>
</clipPath>
</defs>
</svg>
